# This file uses centimeters as units for non-parametric coordinates.

mtllib Katta.mtl
g default
v 1.154509 0.475528 0.000000
v 0.934017 0.475528 -0.678603
v 0.356763 0.475528 -1.098003
v -0.356763 0.475528 -1.098003
v -0.934017 0.475528 -0.678603
v -1.154509 0.475528 -0.000000
v 1.293893 0.404509 0.000000
v 1.046781 0.404509 -0.760531
v 0.399835 0.404509 -1.230565
v -0.399835 0.404509 -1.230565
v -1.046781 0.404509 -0.760531
v -1.293893 0.404509 -0.000000
v 1.404509 0.293893 0.000000
v 1.136272 0.293893 -0.825550
v 0.434017 0.293893 -1.335767
v -0.434017 0.293893 -1.335767
v -1.136271 0.293893 -0.825549
v -1.404509 0.293893 -0.000000
v 1.404509 -0.293893 0.000000
v 1.136272 -0.293893 -0.825550
v 0.434017 -0.293893 -1.335767
v -0.434017 -0.293893 -1.335767
v -1.136271 -0.293893 -0.825549
v -1.404509 -0.293893 -0.000000
v 1.293893 -0.404509 0.000000
v 1.046781 -0.404509 -0.760531
v 0.399835 -0.404509 -1.230565
v -0.399835 -0.404509 -1.230565
v -1.046781 -0.404509 -0.760531
v -1.293893 -0.404509 -0.000000
v 1.154509 -0.475528 0.000000
v 0.934017 -0.475528 -0.678603
v 0.356763 -0.475528 -1.098003
v -0.356763 -0.475528 -1.098003
v -0.934017 -0.475528 -0.678603
v -1.154509 -0.475528 -0.000000
v 0.030183 -0.015502 -7.162624
v -0.718899 -0.070104 -8.156963
v -0.718899 0.070104 -8.156963
v 0.030183 0.047963 -7.162624
v 0.550768 -0.035062 -6.415956
v 0.550768 0.035061 -6.415956
v -0.453452 -0.293893 -1.731809
v -0.832117 -0.190020 -1.490975
v -0.832117 0.190020 -1.490975
v -0.453452 0.293893 -1.731809
v 0.429059 0.293893 -1.713569
v 0.640335 0.050377 -1.557932
v 0.640335 -0.050377 -1.557932
v 0.429059 -0.293893 -1.713569
v -0.934017 0.475528 0.678603
v -0.356763 0.475528 1.098003
v 0.356763 0.475528 1.098003
v 0.934017 0.475528 0.678603
v -1.046781 0.404509 0.760531
v -0.399835 0.404509 1.230565
v 0.399835 0.404509 1.230565
v 1.046781 0.404509 0.760531
v -1.136272 0.293893 0.825550
v -0.434017 0.293893 1.335767
v 0.434017 0.293893 1.335767
v 1.136271 0.293893 0.825549
v -1.136272 -0.293893 0.825550
v -0.434017 -0.293893 1.335767
v 0.434017 -0.293893 1.335767
v 1.136271 -0.293893 0.825549
v -1.046781 -0.404509 0.760531
v -0.399835 -0.404509 1.230565
v 0.399835 -0.404509 1.230565
v 1.046781 -0.404509 0.760531
v -0.934017 -0.475528 0.678603
v -0.356763 -0.475528 1.098003
v 0.356763 -0.475528 1.098003
v 0.934017 -0.475528 0.678603
v -0.030183 -0.015502 7.162624
v 0.718899 -0.070104 8.156963
v 0.718899 0.070104 8.156963
v -0.030183 0.047963 7.162624
v -0.550768 -0.035062 6.415956
v -0.550768 0.035061 6.415956
v 0.453452 -0.293893 1.731809
v 0.832117 -0.190020 1.490975
v 0.832117 0.190020 1.490975
v 0.453452 0.293893 1.731809
v -0.429059 0.293893 1.713569
v -0.640335 0.050377 1.557932
v -0.640335 -0.050377 1.557932
v -0.429059 -0.293893 1.713569
vt 0.450000 0.700000
vt 0.550000 0.700000
vt 0.650000 0.700000
vt 0.750000 0.700000
vt 0.850000 0.700000
vt 0.950000 0.700000
vt 0.450000 0.650000
vt 0.550000 0.650000
vt 0.650000 0.650000
vt 0.750000 0.650000
vt 0.850000 0.650000
vt 0.950000 0.650000
vt 0.450000 0.600000
vt 0.550000 0.600000
vt 0.650000 0.600000
vt 0.750000 0.600000
vt 0.850000 0.600000
vt 0.950000 0.600000
vt 0.450000 0.400000
vt 0.550000 0.400000
vt 0.650000 0.400000
vt 0.750000 0.400000
vt 0.850000 0.400000
vt 0.950000 0.400000
vt 0.450000 0.350000
vt 0.550000 0.350000
vt 0.650000 0.350000
vt 0.750000 0.350000
vt 0.850000 0.350000
vt 0.950000 0.350000
vt 0.450000 0.300000
vt 0.550000 0.300000
vt 0.650000 0.300000
vt 0.750000 0.300000
vt 0.850000 0.300000
vt 0.950000 0.300000
vt 0.700000 0.400000
vt 0.850000 0.400000
vt 0.850000 0.600000
vt 0.700000 0.600000
vt 0.550000 0.400000
vt 0.550000 0.600000
vt 0.750000 0.400000
vt 0.850000 0.400000
vt 0.850000 0.600000
vt 0.750000 0.600000
vt 0.650000 0.600000
vt 0.550000 0.600000
vt 0.550000 0.400000
vt 0.650000 0.400000
vt 0.550000 0.650000
vt 0.550000 0.700000
vt 0.450000 0.700000
vt 0.450000 0.650000
vt 0.650000 0.650000
vt 0.650000 0.700000
vt 0.750000 0.650000
vt 0.750000 0.700000
vt 0.850000 0.650000
vt 0.850000 0.700000
vt 0.950000 0.650000
vt 0.950000 0.700000
vt 0.550000 0.600000
vt 0.450000 0.600000
vt 0.650000 0.600000
vt 0.750000 0.600000
vt 0.850000 0.600000
vt 0.950000 0.600000
vt 0.550000 0.350000
vt 0.550000 0.400000
vt 0.450000 0.400000
vt 0.450000 0.350000
vt 0.650000 0.350000
vt 0.650000 0.400000
vt 0.750000 0.350000
vt 0.750000 0.400000
vt 0.850000 0.350000
vt 0.850000 0.400000
vt 0.950000 0.350000
vt 0.950000 0.400000
vt 0.550000 0.300000
vt 0.450000 0.300000
vt 0.650000 0.300000
vt 0.750000 0.300000
vt 0.850000 0.300000
vt 0.950000 0.300000
vt 0.700000 0.400000
vt 0.850000 0.400000
vt 0.850000 0.600000
vt 0.700000 0.600000
vt 0.550000 0.400000
vt 0.550000 0.600000
vt 0.750000 0.400000
vt 0.850000 0.400000
vt 0.850000 0.600000
vt 0.750000 0.600000
vt 0.650000 0.400000
vt 0.650000 0.600000
vt 0.550000 0.400000
vt 0.550000 0.600000
vn 0.496908 0.789141 -0.361025
vn 0.367286 0.891007 -0.266849
vn 0.449130 0.881468 -0.145931
vn 0.602334 0.773881 -0.195710
vn 0.189802 0.789141 -0.584150
vn 0.140291 0.891006 -0.431771
vn -0.189802 0.789141 -0.584150
vn -0.140291 0.891007 -0.431771
vn -0.496908 0.789141 -0.361025
vn -0.367286 0.891007 -0.266849
vn -0.602334 0.773881 -0.195710
vn -0.449131 0.881468 -0.145931
vn 0.572061 0.707107 -0.415627
vn 0.689152 0.689152 -0.223919
vn 0.218508 0.707107 -0.672498
vn -0.218508 0.707107 -0.672498
vn -0.572061 0.707107 -0.415627
vn -0.689151 0.689152 -0.223919
vn 0.496908 -0.789141 -0.361025
vn 0.572062 -0.707107 -0.415627
vn 0.689152 -0.689152 -0.223919
vn 0.602334 -0.773880 -0.195710
vn 0.189802 -0.789141 -0.584151
vn 0.218508 -0.707107 -0.672499
vn -0.189802 -0.789141 -0.584150
vn -0.218508 -0.707107 -0.672499
vn -0.496908 -0.789141 -0.361025
vn -0.572061 -0.707107 -0.415627
vn -0.602334 -0.773880 -0.195710
vn -0.689152 -0.689152 -0.223919
vn 0.367286 -0.891006 -0.266849
vn 0.449131 -0.881468 -0.145931
vn 0.140291 -0.891006 -0.431771
vn -0.140291 -0.891006 -0.431771
vn -0.367286 -0.891006 -0.266849
vn -0.449131 -0.881468 -0.145931
vn -0.951057 0.000000 0.309017
vn -0.951057 0.000000 0.309017
vn -0.951057 0.000000 0.309017
vn -0.951057 0.000000 0.309017
vn -0.587785 0.000000 0.809017
vn -0.587785 0.000000 0.809017
vn -0.587785 0.000000 0.809017
vn -0.587785 0.000000 0.809017
vn 0.000000 0.000000 1.000000
vn 0.000000 0.000000 1.000000
vn 0.000000 0.000000 1.000000
vn 0.000000 0.000000 1.000000
vn 0.587785 0.000000 0.809017
vn 0.587785 0.000000 0.809017
vn 0.587785 0.000000 0.809017
vn 0.587785 0.000000 0.809017
vn 0.951056 0.000000 0.309017
vn 0.951056 0.000000 0.309017
vn 0.951056 0.000000 0.309017
vn 0.951056 0.000000 0.309017
vn -0.951056 0.000000 -0.309017
vn -0.951056 0.000000 -0.309017
vn -0.951056 0.000000 -0.309017
vn -0.951056 0.000000 -0.309017
vn 0.798715 0.000000 -0.601709
vn 0.798715 0.000000 -0.601709
vn 0.798715 0.000000 -0.601709
vn 0.798715 0.000000 -0.601709
vn 0.820305 0.000000 -0.571926
vn 0.820305 0.000000 -0.571926
vn 0.820305 0.000000 -0.571926
vn 0.820305 0.000000 -0.571926
vn 0.951057 -0.000000 -0.309017
vn 0.951057 -0.000000 -0.309017
vn 0.951057 -0.000000 -0.309017
vn 0.951057 -0.000000 -0.309017
vn -0.017240 -0.999048 -0.040066
vn -0.046023 -0.997675 -0.050258
vn -0.020980 -0.999204 -0.033936
vn 0.017104 -0.999214 -0.035753
vn -0.995816 0.000000 -0.091387
vn -0.995816 0.000000 -0.091387
vn -0.999856 0.000000 -0.016982
vn -0.999856 0.000000 -0.016982
vn -0.071344 0.996241 -0.049137
vn -0.036161 0.998643 -0.037488
vn -0.004119 0.999401 -0.034363
vn -0.050506 0.998189 -0.032680
vn 0.178131 -0.982465 -0.055070
vn 0.196900 0.979057 -0.051744
vn 0.372294 -0.921974 -0.106591
vn 0.340326 -0.939328 -0.042895
vn 0.400732 0.910231 -0.104375
vn 0.375294 0.925987 -0.041255
vn 0.959767 0.000000 -0.280797
vn 0.959767 0.000000 -0.280797
vn 0.999830 0.000000 -0.018434
vn 0.999830 0.000000 -0.018434
vn -0.095670 -0.992800 -0.072082
vn -0.195540 -0.969566 -0.147329
vn -0.909495 0.000000 -0.415714
vn -0.909495 0.000000 -0.415714
vn -0.195540 0.969566 -0.147329
vn -0.095670 0.992800 -0.072082
vn 0.250694 0.947255 -0.199651
vn 0.493195 0.776199 -0.392777
vn 0.828021 0.000000 -0.560698
vn 0.828021 0.000000 -0.560698
vn 0.493195 -0.776199 -0.392777
vn 0.250694 -0.947255 -0.199651
vn -0.496908 0.789141 0.361025
vn -0.367286 0.891007 0.266849
vn -0.449130 0.881468 0.145931
vn -0.602334 0.773881 0.195710
vn -0.189802 0.789141 0.584150
vn -0.140291 0.891006 0.431771
vn 0.189802 0.789141 0.584150
vn 0.140291 0.891007 0.431771
vn 0.496908 0.789141 0.361025
vn 0.367286 0.891007 0.266849
vn 0.602334 0.773881 0.195710
vn 0.449131 0.881468 0.145931
vn -0.572061 0.707107 0.415627
vn -0.689152 0.689152 0.223919
vn -0.218508 0.707107 0.672498
vn 0.218508 0.707107 0.672498
vn 0.572061 0.707107 0.415627
vn 0.689151 0.689152 0.223919
vn -0.496908 -0.789141 0.361025
vn -0.572062 -0.707107 0.415627
vn -0.689152 -0.689152 0.223919
vn -0.602334 -0.773880 0.195710
vn -0.189802 -0.789141 0.584151
vn -0.218508 -0.707107 0.672499
vn 0.189802 -0.789141 0.584150
vn 0.218508 -0.707107 0.672499
vn 0.496908 -0.789141 0.361025
vn 0.572061 -0.707107 0.415627
vn 0.602334 -0.773880 0.195710
vn 0.689152 -0.689152 0.223919
vn -0.367286 -0.891006 0.266849
vn -0.449131 -0.881468 0.145931
vn -0.140291 -0.891006 0.431771
vn 0.140291 -0.891006 0.431771
vn 0.367286 -0.891006 0.266849
vn 0.449131 -0.881468 0.145931
vn 0.951057 0.000000 -0.309017
vn 0.951057 0.000000 -0.309017
vn 0.951057 0.000000 -0.309017
vn 0.951057 0.000000 -0.309017
vn 0.587785 0.000000 -0.809017
vn 0.587785 0.000000 -0.809017
vn 0.587785 0.000000 -0.809017
vn 0.587785 0.000000 -0.809017
vn 0.000000 0.000000 -1.000000
vn 0.000000 0.000000 -1.000000
vn 0.000000 0.000000 -1.000000
vn 0.000000 0.000000 -1.000000
vn -0.587785 0.000000 -0.809017
vn -0.587785 0.000000 -0.809017
vn -0.587785 0.000000 -0.809017
vn -0.587785 0.000000 -0.809017
vn -0.951056 0.000000 -0.309017
vn -0.951056 0.000000 -0.309017
vn -0.951056 0.000000 -0.309017
vn -0.951056 0.000000 -0.309017
vn 0.951056 0.000000 0.309017
vn 0.951056 0.000000 0.309017
vn 0.951056 0.000000 0.309017
vn 0.951056 0.000000 0.309017
vn -0.798715 0.000000 0.601709
vn -0.798715 0.000000 0.601709
vn -0.798715 0.000000 0.601709
vn -0.798715 0.000000 0.601709
vn -0.820305 0.000000 0.571926
vn -0.820305 0.000000 0.571926
vn -0.820305 0.000000 0.571926
vn -0.820305 0.000000 0.571926
vn -0.951057 -0.000000 0.309017
vn -0.951057 -0.000000 0.309017
vn -0.951057 -0.000000 0.309017
vn -0.951057 -0.000000 0.309017
vn 0.017240 -0.999048 0.040066
vn 0.046023 -0.997675 0.050258
vn 0.020980 -0.999204 0.033936
vn -0.017104 -0.999214 0.035753
vn 0.995816 0.000000 0.091387
vn 0.995816 0.000000 0.091387
vn 0.999856 0.000000 0.016982
vn 0.999856 0.000000 0.016982
vn 0.071344 0.996241 0.049137
vn 0.036161 0.998643 0.037488
vn 0.004119 0.999401 0.034363
vn 0.050506 0.998189 0.032680
vn -0.178131 -0.982465 0.055070
vn -0.196900 0.979057 0.051744
vn -0.372294 -0.921974 0.106591
vn -0.340326 -0.939328 0.042895
vn -0.400732 0.910231 0.104375
vn -0.375294 0.925987 0.041255
vn -0.959767 0.000000 0.280797
vn -0.959767 0.000000 0.280797
vn -0.999830 0.000000 0.018434
vn -0.999830 0.000000 0.018434
vn 0.095670 -0.992800 0.072082
vn 0.195540 -0.969566 0.147329
vn 0.909495 0.000000 0.415714
vn 0.909495 0.000000 0.415714
vn 0.195540 0.969566 0.147329
vn 0.095670 0.992800 0.072082
vn -0.250694 0.947255 0.199651
vn -0.493195 0.776199 0.392777
vn -0.828021 0.000000 0.560698
vn -0.828021 0.000000 0.560698
vn -0.493195 -0.776199 0.392777
vn -0.250694 -0.947255 0.199651
s 1
g pTorus3
usemtl initialShadingGroup
f 8/8/1 2/2/2 1/1/3 7/7/4
f 9/9/5 3/3/6 2/2/2 8/8/1
f 10/10/7 4/4/8 3/3/6 9/9/5
f 11/11/9 5/5/10 4/4/8 10/10/7
f 12/12/11 6/6/12 5/5/10 11/11/9
f 14/14/13 8/8/1 7/7/4 13/13/14
f 15/15/15 9/9/5 8/8/1 14/14/13
f 16/16/16 10/10/7 9/9/5 15/15/15
f 17/17/17 11/11/9 10/10/7 16/16/16
f 18/18/18 12/12/11 11/11/9 17/17/17
s 2
f 26/26/19 20/20/20 19/19/21 25/25/22
f 27/27/23 21/21/24 20/20/20 26/26/19
f 28/28/25 22/22/26 21/21/24 27/27/23
f 29/29/27 23/23/28 22/22/26 28/28/25
f 30/30/29 24/24/30 23/23/28 29/29/27
f 32/32/31 26/26/19 25/25/22 31/31/32
f 33/33/33 27/27/23 26/26/19 32/32/31
f 34/34/34 28/28/25 27/27/23 33/33/33
f 35/35/35 29/29/27 28/28/25 34/34/34
f 36/36/36 30/30/29 29/29/27 35/35/35
s off
f 32/32/37 31/31/38 1/1/39 2/2/40
f 33/33/41 32/32/42 2/2/43 3/3/44
f 34/34/45 33/33/46 3/3/47 4/4/48
f 35/35/49 34/34/50 4/4/51 5/5/52
f 36/36/53 35/35/54 5/5/55 6/6/56
f 23/23/57 24/24/58 18/18/59 17/17/60
f 37/37/61 38/38/62 39/39/63 40/40/64
f 41/41/65 37/37/66 40/40/67 42/42/68
f 19/19/69 20/20/70 14/14/71 13/13/72
s 3
f 43/43/73 44/44/74 38/38/75 37/37/76
s 4
f 44/44/77 45/45/78 39/39/79 38/38/80
s 5
f 45/45/81 46/46/82 40/40/83 39/39/84
s 3
f 50/50/85 43/43/73 37/37/76
s 5
f 46/46/82 47/47/86 40/40/83
s 3
f 49/49/87 50/50/85 37/37/76 41/41/88
s 5
f 47/47/86 48/48/89 42/42/90 40/40/83
s 6
f 48/48/91 49/49/92 41/41/93 42/42/94
s 3
f 22/22/95 23/23/96 44/44/74 43/43/73
s 4
f 23/23/97 17/17/98 45/45/78 44/44/77
s 5
f 17/17/99 16/16/100 46/46/82 45/45/81
f 16/16/100 15/15/101 47/47/86 46/46/82
f 15/15/101 14/14/102 48/48/89 47/47/86
s 6
f 14/14/103 20/20/104 49/49/92 48/48/91
s 3
f 20/20/105 21/21/106 50/50/85 49/49/87
f 21/21/106 22/22/95 43/43/73 50/50/85
s 7
f 55/51/107 51/52/108 6/53/109 12/54/110
f 56/55/111 52/56/112 51/52/108 55/51/107
f 57/57/113 53/58/114 52/56/112 56/55/111
f 58/59/115 54/60/116 53/58/114 57/57/113
f 7/61/117 1/62/118 54/60/116 58/59/115
f 59/63/119 55/51/107 12/54/110 18/64/120
f 60/65/121 56/55/111 55/51/107 59/63/119
f 61/66/122 57/57/113 56/55/111 60/65/121
f 62/67/123 58/59/115 57/57/113 61/66/122
f 13/68/124 7/61/117 58/59/115 62/67/123
s 8
f 67/69/125 63/70/126 24/71/127 30/72/128
f 68/73/129 64/74/130 63/70/126 67/69/125
f 69/75/131 65/76/132 64/74/130 68/73/129
f 70/77/133 66/78/134 65/76/132 69/75/131
f 25/79/135 19/80/136 66/78/134 70/77/133
f 71/81/137 67/69/125 30/72/128 36/82/138
f 72/83/139 68/73/129 67/69/125 71/81/137
f 73/84/140 69/75/131 68/73/129 72/83/139
f 74/85/141 70/77/133 69/75/131 73/84/140
f 31/86/142 25/79/135 70/77/133 74/85/141
s off
f 71/81/143 36/82/144 6/53/145 51/52/146
f 72/83/147 71/81/148 51/52/149 52/56/150
f 73/84/151 72/83/152 52/56/153 53/58/154
f 74/85/155 73/84/156 53/58/157 54/60/158
f 31/86/159 74/85/160 54/60/161 1/62/162
f 66/78/163 19/80/164 13/68/165 62/67/166
f 75/87/167 76/88/168 77/89/169 78/90/170
f 79/91/171 75/87/172 78/90/173 80/92/174
f 24/71/175 63/70/176 59/63/177 18/64/178
s 9
f 81/93/179 82/94/180 76/88/181 75/87/182
s 10
f 82/94/183 83/95/184 77/89/185 76/88/186
s 11
f 83/95/187 84/96/188 78/90/189 77/89/190
s 9
f 88/97/191 81/93/179 75/87/182
s 11
f 84/96/188 85/98/192 78/90/189
s 9
f 87/99/193 88/97/191 75/87/182 79/91/194
s 11
f 85/98/192 86/100/195 80/92/196 78/90/189
s 12
f 86/100/197 87/99/198 79/91/199 80/92/200
s 9
f 65/76/201 66/78/202 82/94/180 81/93/179
s 10
f 66/78/203 62/67/204 83/95/184 82/94/183
s 11
f 62/67/205 61/66/206 84/96/188 83/95/187
f 61/66/206 60/65/207 85/98/192 84/96/188
f 60/65/207 59/63/208 86/100/195 85/98/192
s 12
f 59/63/209 63/70/210 87/99/198 86/100/197
s 9
f 63/70/211 64/74/212 88/97/191 87/99/193
f 64/74/212 65/76/201 81/93/179 88/97/191
